<?xml version="1.0" encoding="UTF-8" standalone="no"?>
<!-- Created with Inkscape (http://www.inkscape.org/) -->

<svg
   xmlns:dc="http://purl.org/dc/elements/1.1/"
   xmlns:cc="http://creativecommons.org/ns#"
   xmlns:rdf="http://www.w3.org/1999/02/22-rdf-syntax-ns#"
   xmlns:svg="http://www.w3.org/2000/svg"
   xmlns="http://www.w3.org/2000/svg"
   xmlns:sodipodi="http://sodipodi.sourceforge.net/DTD/sodipodi-0.dtd"
   xmlns:inkscape="http://www.inkscape.org/namespaces/inkscape"
   width="80.29615mm"
   height="78.784622mm"
   viewBox="0 0 80.29615 78.784622"
   version="1.1"
   id="svg8"
   inkscape:version="0.92.4 (unknown)"
   sodipodi:docname="splash-image.svg">
  <defs
     id="defs2" />
  <sodipodi:namedview
     id="base"
     pagecolor="#ffffff"
     bordercolor="#666666"
     borderopacity="1.0"
     inkscape:pageopacity="0.0"
     inkscape:pageshadow="2"
     inkscape:zoom="1.4"
     inkscape:cx="87.398484"
     inkscape:cy="-141.91764"
     inkscape:document-units="mm"
     inkscape:current-layer="layer1"
     showgrid="false"
     inkscape:window-width="3832"
     inkscape:window-height="2079"
     inkscape:window-x="3844"
     inkscape:window-y="36"
     inkscape:window-maximized="0"
     fit-margin-top="0"
     fit-margin-left="0"
     fit-margin-right="0"
     fit-margin-bottom="0" />
  <metadata
     id="metadata5">
    <rdf:RDF>
      <cc:Work
         rdf:about="">
        <dc:format>image/svg+xml</dc:format>
        <dc:type
           rdf:resource="http://purl.org/dc/dcmitype/StillImage" />
        <dc:title></dc:title>
      </cc:Work>
    </rdf:RDF>
  </metadata>
  <g
     inkscape:label="Layer 1"
     inkscape:groupmode="layer"
     id="layer1"
     transform="translate(-41.589237,-63.800359)">
    <path
       style="fill:#ffcdcd;fill-opacity:1;stroke:#c00000;stroke-width:3.2098999;stroke-miterlimit:4;stroke-dasharray:none;stroke-dashoffset:0;stroke-opacity:1"
       d="M 81.737573,65.405309 A 38.543116,37.787161 0 0 0 43.194187,103.19267 38.543116,37.787161 0 0 0 81.737573,140.98003 38.543116,37.787161 0 0 0 120.28044,103.19267 38.543116,37.787161 0 0 0 81.737573,65.405309 Z M 80.886977,79.496438 A 22.373411,23.034866 0 0 1 103.26029,102.53121 22.373411,23.034866 0 0 1 80.886977,125.56598 22.373411,23.034866 0 0 1 58.513668,102.53121 22.373411,23.034866 0 0 1 80.886977,79.496438 Z"
       id="path815"
       inkscape:connector-curvature="0" />
    <g
       aria-label="Splash Screen Demo"
       transform="matrix(0,-0.8416555,0.8704858,0,-9.2350473,173.04131)"
       style="font-style:normal;font-weight:normal;font-size:11.79711246px;line-height:1.25;font-family:sans-serif;letter-spacing:0px;word-spacing:0px;fill:#000000;fill-opacity:1;stroke:none;stroke-width:0.29492781"
       id="text838">
      <path
         d="m 76.224313,74.103646 -0.106862,-1.129738 q 0.689326,0.253028 1.288913,0.352535 0.599586,0.09951 1.144384,0.04798 0.946227,-0.0895 1.427635,-0.505345 0.475673,-0.415299 0.411664,-1.091995 -0.0537,-0.567737 -0.419715,-0.828203 -0.371205,-0.254189 -1.339982,-0.341919 l -0.713196,-0.07719 q -1.31937,-0.124 -1.992111,-0.691042 -0.677933,-0.560765 -0.776658,-1.604482 -0.11771,-1.244432 0.658803,-1.965917 0.77078,-0.720942 2.382233,-0.873369 0.60788,-0.0575 1.309064,0.01504 0.695449,0.07308 1.454987,0.273181 l 0.112829,1.192819 q -0.742798,-0.328974 -1.43848,-0.46568 -0.695681,-0.136706 -1.349438,-0.07487 -0.992106,0.09384 -1.494282,0.534794 -0.502177,0.44095 -0.433828,1.163523 0.05967,0.630819 0.48326,0.949484 0.417858,0.319209 1.317819,0.413448 l 0.718388,0.07091 q 1.320455,0.13547 1.951736,0.631215 0.63128,0.495745 0.724038,1.476381 0.107404,1.135473 -0.627882,1.86463 -0.74102,0.729699 -2.146025,0.862598 -0.602144,0.05696 -1.237534,0.0071 -0.63539,-0.04983 -1.30976,-0.205913 z"
         style="stroke-width:0.29492781"
         id="path919" />
      <path
         d="m 72.470649,67.465722 -0.964677,-3.28282 1.022427,-0.300446 2.510759,8.544173 -1.022427,0.300447 -0.276086,-0.939527 q -0.158141,0.646857 -0.566531,1.05505 -0.412293,0.415345 -1.092068,0.615101 -1.127433,0.331303 -2.092409,-0.357759 -0.970503,-0.687438 -1.399249,-2.146469 -0.428745,-1.459031 0.01557,-2.562222 0.438789,-1.101567 1.566222,-1.43287 0.679776,-0.199756 1.2496,-0.07902 0.565921,0.12789 1.048869,0.586359 z m -2.824674,3.17756 q 0.329679,1.121906 0.980681,1.62105 0.647098,0.506294 1.453987,0.269185 0.806888,-0.237109 1.082737,-1.014618 0.271946,-0.770357 -0.05773,-1.892264 -0.329679,-1.121906 -0.976778,-1.628201 -0.651001,-0.499143 -1.457889,-0.262034 -0.806889,0.237109 -1.078835,1.007467 -0.275849,0.777508 0.05383,1.899415 z"
         style="stroke-width:0.29492781"
         id="path921" />
      <path
         d="m 69.785406,76.810924 -0.965787,0.436619 -3.692271,-8.167205 0.965788,-0.436618 z"
         style="stroke-width:0.29492781"
         id="path923" />
      <path
         d="m 62.352376,74.315108 q 1.088113,-0.682697 1.351611,-1.194831 0.263498,-0.512133 -0.113057,-1.112303 -0.30002,-0.478184 -0.789866,-0.56526 -0.491664,-0.07913 -1.033281,0.260683 -0.746552,0.468398 -0.864826,1.277028 -0.120092,0.81657 0.430965,1.694867 l 0.125518,0.200057 z m -1.558083,1.49438 -1.95625,-3.117956 0.897815,-0.563302 0.520442,0.829503 q -0.0049,-0.690572 0.303796,-1.217438 0.311718,-0.521986 0.97532,-0.93834 0.839262,-0.526565 1.630861,-0.370405 0.78978,0.164101 1.285731,0.954568 0.578609,0.922213 0.257698,1.776377 -0.325791,0.857227 -1.550528,1.625644 l -1.258893,0.789848 0.05511,0.08783 q 0.388801,0.619687 1.009911,0.699208 0.619293,0.08746 1.356087,-0.374813 0.468425,-0.293897 0.84204,-0.684713 0.373616,-0.390817 0.642662,-0.87243 l 0.520442,0.829503 q -0.373427,0.499501 -0.778805,0.883046 -0.402318,0.388424 -0.841466,0.663952 -1.185702,0.743926 -2.156973,0.496489 -0.971271,-0.247437 -1.754996,-1.496571 z"
         style="stroke-width:0.29492781"
         id="path925" />
      <path
         d="m 58.252561,81.459906 -0.671163,-0.744401 q 0.487988,-0.12974 0.924499,-0.368186 0.436511,-0.238446 0.821547,-0.585599 0.586109,-0.528444 0.719297,-0.974278 0.128911,-0.441977 -0.195098,-0.801343 -0.246865,-0.273803 -0.599214,-0.243089 -0.348491,0.03499 -1.10895,0.464686 l -0.323526,0.183112 q -1.000526,0.57634 -1.648344,0.563216 -0.64824,-0.005 -1.176684,-0.591098 -0.601732,-0.667394 -0.42225,-1.535007 0.175205,-0.863756 1.099289,-1.696924 0.385035,-0.347153 0.873726,-0.648157 0.480556,-0.301425 1.077602,-0.568273 l 0.732879,0.812852 q -0.640808,0.166697 -1.168492,0.433055 -0.523828,0.270636 -0.93881,0.64479 -0.556162,0.501444 -0.685914,0.959691 -0.125896,0.462526 0.186542,0.809057 0.289294,0.320863 0.661771,0.29527 0.368199,-0.02174 1.242484,-0.523035 l 0.331662,-0.182692 q 0.870428,-0.505577 1.481006,-0.482144 0.614435,0.02771 1.115878,0.583873 0.609447,0.675951 0.462016,1.475886 -0.14743,0.799935 -1.028733,1.59453 -0.436373,0.39344 -0.879267,0.676421 -0.442894,0.28298 -0.883753,0.447787 z"
         style="stroke-width:0.29492781"
         id="path927" />
      <path
         d="m 52.428775,84.90539 -3.078944,-2.383925 0.64888,-0.838056 3.051615,2.362767 q 0.724189,0.560716 1.302651,0.556923 0.578461,-0.0038 1.015749,-0.56857 0.525451,-0.678643 0.39604,-1.405362 -0.129411,-0.726719 -0.876374,-1.305068 l -2.883093,-2.232285 0.652406,-0.842611 7.087035,5.487261 -0.652406,0.84261 -2.778336,-2.151175 q 0.227269,0.656785 0.141141,1.238475 -0.08965,0.586244 -0.502256,1.119138 -0.680618,0.879047 -1.576301,0.906776 -0.891129,0.03125 -1.947807,-0.786898 z"
         style="stroke-width:0.29492781"
         id="path929" />
      <path
         d="m 52.439961,95.468549 -1.062417,-0.398746 q 0.529384,-0.508868 0.881452,-1.004301 0.352068,-0.495433 0.544357,-1.007766 0.333975,-0.889841 0.170993,-1.504751 -0.165006,-0.609517 -0.801378,-0.84836 -0.533904,-0.200385 -0.928368,0.01457 -0.391094,0.222374 -0.894276,1.054861 l -0.381764,0.607341 q -0.689343,1.131777 -1.493755,1.488199 -0.801044,0.36384 -1.782566,-0.0045 -1.170276,-0.439228 -1.478772,-1.453301 -0.31052,-1.00868 0.25825,-2.524107 0.214554,-0.571656 0.586877,-1.170235 0.370298,-0.593186 0.882852,-1.188355 l 1.12174,0.421012 q -0.621079,0.523674 -1.048676,1.089202 -0.427598,0.565528 -0.658344,1.180327 -0.350168,0.932985 -0.173711,1.577564 0.176458,0.644578 0.855973,0.899613 0.593228,0.222651 1.065231,-0.01858 0.469979,-0.235836 0.948871,-1.003607 l 0.378395,-0.614758 q 0.700129,-1.127729 1.422288,-1.478107 0.72216,-0.350378 1.644359,-0.0043 1.067809,0.40077 1.40126,1.381141 0.331426,0.985763 -0.164477,2.307043 -0.212529,0.566262 -0.535622,1.115639 -0.323093,0.549377 -0.758772,1.087261 z"
         style="stroke-width:0.29492781"
         id="path931" />
      <path
         d="m 49.42023,100.3991 -0.976498,-0.16757 q 0.320118,-0.400939 0.51631,-0.828987 0.200895,-0.421397 0.278838,-0.875582 0.174397,-1.01624 -0.376364,-1.689363 -0.545082,-0.672148 -1.708932,-0.871876 -1.16385,-0.199728 -1.907519,0.251258 -0.73799,0.451961 -0.912387,1.468201 -0.07794,0.454185 -0.03471,0.917476 0.04793,0.469942 0.216063,0.954667 l -0.965144,-0.165628 q -0.129363,-0.472228 -0.15069,-0.960982 -0.0223,-0.483077 0.06831,-1.011068 0.246494,-1.436361 1.294355,-2.127371 1.047862,-0.691009 2.580737,-0.427953 1.555585,0.266954 2.300782,1.271514 0.744222,1.010237 0.48896,2.497694 -0.08281,0.482572 -0.263923,0.924898 -0.175431,0.443302 -0.448183,0.840672 z"
         style="stroke-width:0.29492781"
         id="path933" />
      <path
         d="m 48.60856,105.06294 q 0.107411,-0.17635 0.157958,-0.38847 0.05618,-0.20623 0.0615,-0.45963 0.01886,-0.89841 -0.558402,-1.39451 -0.571627,-0.49021 -1.665845,-0.51318 l -3.397833,-0.0713 0.02237,-1.06542 6.450124,0.13542 -0.02237,1.06542 -1.002073,-0.021 q 0.580409,0.34636 0.851357,0.88788 0.276707,0.54163 0.260625,1.30759 -0.0023,0.10942 -0.02235,0.24151 -0.0143,0.13222 -0.04648,0.29287 z"
         style="stroke-width:0.29492781"
         id="path935" />
      <path
         d="m 47.415482,110.8139 -0.513526,0.0711 -0.668589,-4.82714 q -1.074626,0.21863 -1.564599,0.87965 -0.483478,0.66594 -0.338854,1.71011 0.08377,0.60482 0.310362,1.14915 0.227381,0.55004 0.601534,1.06811 l -0.992816,0.13752 q -0.317884,-0.53169 -0.525603,-1.10771 -0.20772,-0.57602 -0.292281,-1.18655 -0.211799,-1.52916 0.554235,-2.54826 0.766825,-1.0134 2.284578,-1.22362 1.569106,-0.21733 2.60471,0.4999 1.042099,0.72214 1.241253,2.16001 0.178607,1.28952 -0.550917,2.15237 -0.723027,0.86776 -2.149487,1.06533 z m 0.162701,-1.09255 q 0.860001,-0.13074 1.307932,-0.67545 0.448721,-0.53901 0.341241,-1.315 -0.121705,-0.8787 -0.69161,-1.34059 -0.569115,-0.45618 -1.481702,-0.4112 z"
         style="stroke-width:0.29492781"
         id="path937" />
      <path
         d="m 49.519323,117.05772 -0.489808,0.16987 -1.596781,-4.60419 q -1.011389,0.42393 -1.3631,1.16779 -0.344381,0.74741 0.001,1.74335 0.20007,0.57689 0.528427,1.0666 0.330245,0.49516 0.798215,0.93036 l -0.946961,0.32841 q -0.415435,-0.45951 -0.73146,-0.98399 -0.316025,-0.52447 -0.517983,-1.1068 -0.505836,-1.45854 0.04684,-2.60742 0.554557,-1.14344 2.002211,-1.64551 1.496634,-0.51904 2.652188,-0.0175 1.162883,0.50514 1.63852,1.8766 0.426563,1.22996 -0.120757,2.21847 -0.539992,0.99206 -1.900568,1.46392 z m -0.05341,-1.1033 q 0.818013,-0.29589 1.151162,-0.91747 0.335037,-0.61614 0.07834,-1.3563 -0.290667,-0.83811 -0.93968,-1.18004 -0.647126,-0.33648 -1.533435,-0.11446 z"
         style="stroke-width:0.29492781"
         id="path939" />
      <path
         d="m 53.068297,122.42666 -3.356387,1.97425 -0.53737,-0.91358 3.326597,-1.95672 q 0.789446,-0.46436 1.000616,-1.00291 0.211171,-0.53856 -0.150969,-1.15422 -0.435153,-0.7398 -1.157996,-0.88935 -0.722844,-0.14955 -1.537115,0.32941 l -3.142889,1.84867 -0.54029,-0.91854 5.560878,-3.27094 0.54029,0.91853 -0.863923,0.50817 q 0.694225,0.0327 1.202401,0.32859 0.511098,0.30083 0.852795,0.88175 0.563653,0.95825 0.256973,1.80025 -0.301715,0.83908 -1.453611,1.51664 z"
         style="stroke-width:0.29492781"
         id="path941" />
      <path
         d="m 59.358907,124.09098 -4.424949,5.01452 1.053869,0.92997 q 1.334614,1.1777 2.485836,1.11804 1.155542,-0.0559 2.306562,-1.36023 1.143398,-1.29574 1.051217,-2.44494 -0.08405,-1.14969 -1.418665,-2.32739 z m -0.239785,-1.48686 1.792442,1.5817 q 1.874506,1.65411 2.061441,3.20958 0.190746,1.55114 -1.272803,3.20969 -1.471172,1.66719 -3.042126,1.67144 -1.570954,0.004 -3.436822,-1.64224 l -1.792442,-1.5817 z"
         style="stroke-width:0.29492781"
         id="path943" />
      <path
         d="m 66.938927,134.43314 -0.253776,0.45207 -4.249435,-2.38549 q -0.475474,0.9882 -0.245104,1.77811 0.238213,0.78771 1.157417,1.30372 0.532435,0.29889 1.103023,0.44744 0.57561,0.15138 1.214488,0.16652 l -0.490634,0.874 q -0.615703,-0.0682 -1.200127,-0.25094 -0.584423,-0.18275 -1.121881,-0.48446 -1.346157,-0.75569 -1.694885,-1.98197 -0.343706,-1.22346 0.406343,-2.55957 0.775427,-1.38132 1.972804,-1.7727 1.20522,-0.39358 2.471009,0.317 1.135192,0.63726 1.381521,1.73999 0.254171,1.10054 -0.450763,2.35628 z m -0.771961,-0.79007 q 0.415734,-0.76411 0.252603,-1.45021 -0.158108,-0.68329 -0.841232,-1.06677 -0.773538,-0.43424 -1.485991,-0.25948 -0.707431,0.17759 -1.22327,0.93174 z"
         style="stroke-width:0.29492781"
         id="path945" />
      <path
         d="m 73.024755,134.64639 q 0.573366,-0.5826 1.196905,-0.76287 0.62354,-0.18028 1.345324,0.0192 0.971633,0.26852 1.31036,1.09721 0.340261,0.82313 -0.0065,2.07793 l -1.037253,3.75328 -1.027155,-0.28387 1.028047,-3.71996 q 0.247038,-0.89391 0.05025,-1.41444 -0.196791,-0.52053 -0.846397,-0.70005 -0.793963,-0.21942 -1.400562,0.18068 -0.6066,0.4001 -0.858241,1.31066 l -0.971274,3.51454 -1.027154,-0.28387 1.028046,-3.71996 q 0.248573,-0.89946 0.05025,-1.41443 -0.196792,-0.52054 -0.857502,-0.70313 -0.782859,-0.21635 -1.390992,0.18931 -0.6066,0.4001 -0.856706,1.3051 l -0.971274,3.51454 -1.027155,-0.28386 1.718526,-6.21845 1.027154,0.28386 -0.266985,0.96608 q 0.507831,-0.47521 1.071609,-0.61224 0.563778,-0.13703 1.235592,0.0486 0.677367,0.1872 1.05417,0.66186 0.382356,0.47619 0.428937,1.19426 z"
         style="stroke-width:0.29492781"
         id="path947" />
      <path
         d="m 80.676544,135.2552 q -0.852108,-0.0267 -1.368155,0.6257 -0.515867,0.64661 -0.552086,1.80387 -0.03622,1.15725 0.432264,1.84044 0.474421,0.67761 1.332287,0.70446 0.846351,0.0265 1.362398,-0.62589 0.516047,-0.65237 0.552086,-1.80387 0.03586,-1.14574 -0.438382,-1.8291 -0.474061,-0.68913 -1.320412,-0.71561 z m 0.02811,-0.89817 q 1.381797,0.0432 2.142463,0.9661 0.760665,0.92286 0.710931,2.51192 -0.04955,1.58331 -0.866621,2.46255 -0.816887,0.87348 -2.198684,0.83024 -1.387555,-0.0434 -2.148221,-0.96629 -0.754727,-0.92843 -0.705173,-2.51174 0.04973,-1.58907 0.860863,-2.46273 0.816887,-0.87348 2.204442,-0.83005 z"
         style="stroke-width:0.29492781"
         id="path949" />
    </g>
  </g>
</svg>
